<svg width="34" height="34" viewBox="0 0 34 34" fill="none" xmlns="http://www.w3.org/2000/svg">
<g id="Capa_1" clip-path="url(#clip0_583_670)">
<path id="Vector" d="M9.90234 8.1582L21.8657 25.2703H24.4645L12.5015 8.1582H9.90234Z" fill="#1D8DFF"/>
<path id="Vector_2" d="M17.1893 0.0136719C7.97763 0.0136719 0.509766 7.48181 0.509766 16.6932C0.509766 25.9046 7.97763 33.3727 17.1893 33.3727C26.401 33.3727 33.8688 25.9049 33.8688 16.6932C33.8688 7.48154 26.401 0.0136719 17.1893 0.0136719ZM21.0681 26.4856L15.8386 18.875L9.29133 26.4856H7.59918L15.0874 17.7818L7.59918 6.88368H13.3105L18.2624 14.0905L24.4622 6.88368H26.1541L19.0139 15.1838H19.0133L26.7792 26.4856H21.0679H21.0681Z" fill="#1D8DFF"/>
</g>
<defs>
<clipPath id="clip0_583_670">
<rect width="33.3591" height="33.3591" fill="white" transform="translate(0.509766 0.0136719)"/>
</clipPath>
</defs>
</svg>
