<svg width="96" height="72" viewBox="0 0 96 72" fill="none" xmlns="http://www.w3.org/2000/svg">
<g id="Group 146">
<path id="Vector" d="M60.7598 42.8154V25.1885L63.99 24.8555V42.8154H60.7598Z" fill="url(#paint0_linear_284_359)"/>
<path id="Vector_2" d="M76.9583 31.0312V42.8165H74.2045L73.9432 41.894C72.7112 42.7488 71.4468 43.1751 70.15 43.1751C69.0781 43.1751 68.249 42.8588 67.6654 42.2271C67.0809 41.5954 66.7891 40.724 66.7891 39.6138V31.3643L70.0193 31.0312V38.5891C70.0193 39.2729 70.1244 39.7641 70.3347 40.0618C70.5449 40.3614 70.9241 40.5098 71.4733 40.5098C72.0549 40.5098 72.8065 40.2455 73.727 39.716V31.3633L76.9583 31.0312Z" fill="url(#paint1_linear_284_359)"/>
<path id="Vector_3" d="M80.9637 42.779C80.1581 42.5147 79.4046 42.1169 78.7031 41.5873L80.0717 39.3582C80.6641 39.8189 81.2634 40.148 81.8725 40.3445C82.4806 40.541 83.0651 40.6393 83.6261 40.6393C84.1547 40.6393 84.5427 40.5538 84.7903 40.3829C85.0389 40.2119 85.1626 39.982 85.1626 39.6912C85.1626 39.5036 85.1145 39.3366 85.0182 39.1912C84.9219 39.0467 84.7255 38.9013 84.4297 38.7559C84.1331 38.6115 83.6968 38.4533 83.1202 38.2814L82.4236 38.0761C81.2702 37.7342 80.442 37.2911 79.9371 36.7439C79.4321 36.1977 79.1806 35.454 79.1806 34.5148C79.1806 33.7976 79.3633 33.1659 79.7307 32.6187C80.0972 32.0724 80.6159 31.649 81.286 31.3503C81.956 31.0517 82.7213 30.9023 83.5829 30.9023C85.2098 30.9023 86.6844 31.3209 88.0088 32.1579L86.7483 34.387C86.0861 34.0285 85.5281 33.7809 85.0762 33.6443C84.6243 33.5078 84.1389 33.439 83.6222 33.439C83.2184 33.439 82.9148 33.5156 82.7134 33.6699C82.512 33.8241 82.4108 34.0206 82.4108 34.2593C82.4108 34.4303 82.4511 34.5708 82.5317 34.6818C82.6122 34.7928 82.7616 34.8959 82.9797 34.9893C83.1978 35.0836 83.5406 35.1985 84.0093 35.3351L84.808 35.566C86.0508 35.9079 86.9585 36.3853 87.5323 37.0003C88.105 37.6153 88.3919 38.3924 88.3919 39.3316C88.3919 40.0665 88.22 40.7238 87.8771 41.3044C87.5342 41.885 87.0076 42.3418 86.2983 42.6749C85.588 43.0079 84.7235 43.1749 83.7027 43.1749C82.682 43.1769 81.7683 43.0443 80.9637 42.779Z" fill="url(#paint2_linear_284_359)"/>
<path id="Vector_4" d="M7.70721 50.7129L12.0869 63.6771V63.8392H9.24865L8.27112 60.6994H3.75978L2.80092 63.8392H0V63.6771L4.37969 50.7129H7.70721ZM4.47499 58.3896H7.55788L5.99777 53.3861L4.47499 58.3896Z" fill="white"/>
<path id="Vector_5" d="M13.5156 49.8912V63.8349H16.0601V49.627L13.5156 49.8912Z" fill="white"/>
<path id="Vector_6" d="M24.6523 55.1165C25.2094 55.5822 25.4884 56.3495 25.4884 57.4154V63.8366H23.3251L23.1197 63.1273C22.655 63.4918 22.1923 63.7492 21.7335 63.8975C21.2747 64.0459 20.7933 64.1205 20.2903 64.1205C19.7627 64.1205 19.2971 64.0125 18.8943 63.7963C18.4915 63.5802 18.181 63.2796 17.961 62.8954C17.7409 62.5103 17.6309 62.0682 17.6309 61.5682C17.6309 60.5012 18.1211 59.6878 19.1016 59.1268C20.082 58.5668 21.3651 58.2524 22.9498 58.1847V57.9616C22.9498 57.5834 22.9154 57.2867 22.8456 57.0706C22.7759 56.8544 22.6541 56.6963 22.4772 56.5941C22.3014 56.4929 22.0558 56.4418 21.7414 56.4418C20.9485 56.4418 20.0496 56.7866 19.0436 57.4753L18.0622 55.814C18.739 55.3415 19.3992 54.9907 20.0447 54.7609C20.6902 54.531 21.3946 54.416 22.1589 54.416C23.2641 54.418 24.0943 54.6508 24.6523 55.1165ZM20.5114 61.9032C20.6764 62.0584 20.9181 62.136 21.2354 62.136C21.7561 62.136 22.3289 61.9533 22.9508 61.5888V59.8263C22.0233 59.8803 21.3435 60.0356 20.9112 60.292C20.4789 60.5484 20.2628 60.8588 20.2628 61.2243C20.2628 61.522 20.3453 61.7479 20.5114 61.9032Z" fill="white"/>
<path id="Vector_7" d="M30.9043 52.4105C31.1165 52.1453 31.4083 52.0392 31.7521 52.0392C31.9643 52.0392 32.1765 52.0392 32.3622 52.0922C32.5214 52.1188 32.7336 52.1983 32.9723 52.3044L33.5824 50.1568C33.2641 50.0242 32.9193 49.9181 32.6019 49.8385C32.2571 49.7855 31.8857 49.7324 31.4623 49.7324C30.7461 49.7324 30.1105 49.9181 29.6065 50.2364C29.1025 50.5547 28.7321 51.0312 28.4669 51.6148C28.2016 52.1718 28.069 52.834 28.069 53.5767V54.7163H26.8223V56.8904H28.068V63.8353H30.6125V56.8904H32.5214L32.8132 54.7163H30.6125V53.4971C30.6125 53.0462 30.6921 52.6758 30.9043 52.4105Z" fill="white"/>
<path id="Vector_8" d="M41.7459 49.6387V63.8388H39.5826L39.3959 63.211C38.5667 63.8191 37.712 64.1227 36.8317 64.1227C35.6626 64.1227 34.7794 63.7278 34.1831 62.9379C33.5858 62.148 33.2871 60.9966 33.2871 59.4837C33.2871 58.2959 33.5003 57.3233 33.9286 56.5668C34.356 55.8103 34.9062 55.2641 35.5791 54.9261C36.2521 54.5882 36.9653 54.4192 37.7189 54.4192C38.1836 54.4192 38.6807 54.4939 39.2083 54.6422V49.902L41.7459 49.6387ZM36.316 61.4279C36.5802 61.8464 36.9771 62.0557 37.5067 62.0557C37.7965 62.0557 38.0804 62.0085 38.3575 61.9142C38.6345 61.8199 38.9184 61.6784 39.2083 61.4888V56.5059C38.8172 56.4116 38.4518 56.3644 38.1119 56.3644C37.4438 56.3644 36.9113 56.6316 36.5144 57.1641C36.1175 57.6976 35.9191 58.4639 35.9191 59.463C35.9191 60.3551 36.0517 61.0094 36.316 61.4279Z" fill="white"/>
<path id="Vector_9" d="M50.3457 55.1165C50.9027 55.5822 51.1817 56.3495 51.1817 57.4154V63.8366H49.0184L48.8131 63.1273C48.3484 63.4918 47.8857 63.7492 47.4269 63.8975C46.9681 64.0459 46.4867 64.1205 45.9837 64.1205C45.4561 64.1205 44.9904 64.0125 44.5876 63.7963C44.1848 63.5802 43.8744 63.2796 43.6543 62.8954C43.4343 62.5103 43.3242 62.0682 43.3242 61.5682C43.3242 60.5012 43.8145 59.6878 44.7949 59.1268C45.7754 58.5668 47.0585 58.2524 48.6431 58.1847V57.9616C48.6431 57.5834 48.6087 57.2867 48.539 57.0706C48.4692 56.8544 48.3474 56.6963 48.1706 56.5941C47.9947 56.4929 47.7491 56.4418 47.4347 56.4418C46.6419 56.4418 45.743 56.7866 44.737 57.4753L43.7555 55.814C44.4324 55.3415 45.0926 54.9907 45.7381 54.7609C46.3835 54.531 47.0879 54.416 47.8523 54.416C48.9575 54.418 49.7877 54.6508 50.3457 55.1165ZM46.2047 61.9032C46.3698 62.0584 46.6114 62.136 46.9288 62.136C47.4495 62.136 48.0222 61.9533 48.6441 61.5888V59.8263C47.7167 59.8803 47.0368 60.0356 46.6046 60.292C46.1723 60.5484 45.9562 60.8588 45.9562 61.2243C45.9562 61.522 46.0387 61.7479 46.2047 61.9032Z" fill="white"/>
<path id="Vector_10" d="M53.4004 51.9102V63.8389H55.938V51.9102H53.4004Z" fill="white"/>
<path id="Vector_11" d="M69.6588 51.2591C70.373 51.6236 70.9055 52.1197 71.2562 52.7475C71.6069 53.3753 71.7828 54.1013 71.7828 54.9256C71.7828 55.8039 71.5991 56.5839 71.2316 57.2657C70.8642 57.9475 70.3091 58.481 69.5674 58.8661C68.8257 59.2512 67.9228 59.4438 66.8578 59.4438H65.2987V63.8392H62.7051V50.7129H66.9718C68.0476 50.7119 68.9435 50.8937 69.6588 51.2591ZM68.4052 56.6576C68.8276 56.3403 69.0388 55.7901 69.0388 55.0061C69.0388 54.345 68.8502 53.8479 68.473 53.5178C68.0957 53.1867 67.5681 53.0216 66.8903 53.0216H65.2977V57.1341H66.6024C67.3815 57.1331 67.9827 56.9749 68.4052 56.6576Z" fill="white"/>
<path id="Vector_12" d="M73.3789 63.8388V49.902L75.9165 49.6387V63.8388H73.3789Z" fill="white"/>
<path id="Vector_13" d="M86.1044 54.5195V63.8379H83.9411L83.7357 63.109C82.768 63.7849 81.7738 64.1219 80.756 64.1219C79.9141 64.1219 79.2627 63.8713 78.8039 63.3723C78.3451 62.8732 78.1152 62.1845 78.1152 61.3062V54.7828L80.6529 54.5195V60.4957C80.6529 61.036 80.7354 61.4241 80.9004 61.6609C81.0655 61.8976 81.3632 62.0155 81.7954 62.0155C82.2523 62.0155 82.8427 61.8063 83.5668 61.3877V54.7838L86.1044 54.5195Z" fill="white"/>
<path id="Vector_14" d="M89.2528 63.8071C88.6201 63.5979 88.0277 63.2835 87.4766 62.865L88.5523 61.1025C89.018 61.467 89.4886 61.7273 89.967 61.8825C90.4445 62.0378 90.9043 62.1154 91.3444 62.1154C91.759 62.1154 92.0645 62.0476 92.2591 61.913C92.4546 61.7784 92.5518 61.5957 92.5518 61.3658C92.5518 61.2174 92.5135 61.0858 92.4388 60.9708C92.3632 60.8559 92.209 60.7409 91.9771 60.626C91.7443 60.5111 91.4014 60.3863 90.9485 60.2507L90.4013 60.0886C89.4955 59.8184 88.8441 59.4677 88.4482 59.0354C88.0513 58.6032 87.8538 58.0157 87.8538 57.2729C87.8538 56.7061 87.9973 56.206 88.2861 55.7737C88.5739 55.3415 88.9816 55.0075 89.5082 54.7707C90.0348 54.5349 90.6361 54.416 91.313 54.416C92.5911 54.416 93.7504 54.7471 94.7898 55.4083L93.7995 57.1708C93.2788 56.8868 92.8407 56.6913 92.485 56.5833C92.1294 56.4752 91.7492 56.4212 91.3424 56.4212C91.0251 56.4212 90.7874 56.4821 90.6282 56.6039C90.47 56.7257 90.3905 56.8809 90.3905 57.0696C90.3905 57.2052 90.4219 57.3162 90.4858 57.4036C90.5496 57.492 90.6665 57.5726 90.8375 57.6463C91.0084 57.7209 91.2786 57.8123 91.646 57.9194L92.2738 58.1021C93.2503 58.3723 93.9636 58.7505 94.4135 59.2368C94.8635 59.7231 95.0895 60.3381 95.0895 61.0799C95.0895 61.6605 94.9549 62.1812 94.6857 62.64C94.4165 63.0988 94.0029 63.4603 93.4449 63.7236C92.8868 63.9869 92.207 64.1186 91.4053 64.1186C90.6027 64.1215 89.8855 64.0164 89.2528 63.8071Z" fill="white"/>
<g id="Group" opacity="0.42">
<path id="Vector_15" d="M11.118 68.8255H9.62762V69.8629H10.9274L10.8802 70.2353H9.62762V71.5399H9.18945V68.4551H11.118V68.8255Z" fill="white"/>
<path id="Vector_16" d="M21.4551 71.3939C21.2399 71.2593 21.0778 71.0707 20.9678 70.83C20.8578 70.5893 20.8027 70.3073 20.8027 69.9871C20.8027 69.6314 20.8695 69.3347 21.0031 69.096C21.1368 68.8582 21.3136 68.6824 21.5366 68.5684C21.7586 68.4544 22.0043 68.3965 22.2744 68.3965C22.5829 68.3965 22.8433 68.4633 23.0604 68.5979C23.2765 68.7335 23.4396 68.9221 23.5486 69.1628C23.6577 69.4035 23.7127 69.6854 23.7127 70.0057C23.7127 70.3614 23.6469 70.6581 23.5133 70.8958C23.3797 71.1345 23.2018 71.3104 22.9798 71.4244C22.7578 71.5383 22.5112 71.5963 22.241 71.5963C21.9335 71.5963 21.6712 71.5295 21.4551 71.3939ZM22.8049 71.0697C22.9552 70.9665 23.0682 70.8251 23.1419 70.6443C23.2166 70.4635 23.2539 70.2523 23.2539 70.0106C23.2539 69.7631 23.2176 69.5469 23.1478 69.3603C23.0761 69.1746 22.967 69.0292 22.8216 68.9241C22.6753 68.8199 22.4935 68.7669 22.2734 68.7669C22.0485 68.7669 21.8598 68.8179 21.7095 68.9211C21.5582 69.0243 21.4452 69.1667 21.3706 69.3485C21.2959 69.5292 21.2586 69.7395 21.2586 69.9821C21.2586 70.2297 21.2949 70.4458 21.3667 70.6325C21.4374 70.8172 21.5464 70.9636 21.6928 71.0677C21.8382 71.1729 22.0209 71.2259 22.24 71.2259C22.466 71.2259 22.6536 71.1738 22.8049 71.0697Z" fill="white"/>
<path id="Vector_17" d="M35.9404 71.5114V71.5399H35.4365L34.5454 70.3355H34.0886V71.5399H33.6504V68.4551H34.6554C34.8961 68.4551 35.1005 68.4934 35.2675 68.569C35.4345 68.6457 35.5593 68.7518 35.6438 68.8874C35.7282 69.0239 35.7695 69.1831 35.7695 69.3638C35.7695 69.5102 35.741 69.6448 35.687 69.7686C35.631 69.8934 35.5485 70.0005 35.4374 70.0899C35.3264 70.1802 35.1879 70.247 35.0229 70.2883L35.9404 71.5114ZM34.0876 69.9729H34.5876C34.8264 69.9729 35.0071 69.9219 35.129 69.8187C35.2508 69.7155 35.3117 69.5701 35.3117 69.3825C35.3117 69.2017 35.2557 69.0642 35.1427 68.9689C35.0307 68.8736 34.8647 68.8255 34.6456 68.8255H34.0886V69.9729H34.0876Z" fill="white"/>
<path id="Vector_18" d="M59.9718 68.571C60.1437 68.6486 60.2714 68.7587 60.3569 68.8992C60.4424 69.0406 60.4856 69.2047 60.4856 69.3923C60.4856 69.58 60.4424 69.749 60.3549 69.9013C60.2675 70.0535 60.1349 70.1753 59.959 70.2657C59.7832 70.3561 59.567 70.4023 59.3087 70.4023H58.7565V71.5399H58.3184V68.4551H59.347C59.5916 68.4541 59.7999 68.4924 59.9718 68.571ZM59.8402 69.8688C59.9659 69.7598 60.0288 69.6075 60.0288 69.412C60.0288 69.2214 59.9708 69.076 59.8549 68.9758C59.738 68.8756 59.567 68.8255 59.3381 68.8255H58.7565V70.0299H59.2753C59.5268 70.0299 59.7144 69.9769 59.8402 69.8688Z" fill="white"/>
<path id="Vector_19" d="M68.7187 71.3939C68.5036 71.2593 68.3415 71.0707 68.2315 70.83C68.1214 70.5893 68.0664 70.3073 68.0664 69.9871C68.0664 69.6314 68.1332 69.3347 68.2668 69.096C68.4004 68.8582 68.5773 68.6824 68.8003 68.5684C69.0223 68.4544 69.2679 68.3965 69.5381 68.3965C69.8466 68.3965 70.1069 68.4633 70.324 68.5979C70.5402 68.7335 70.7033 68.9221 70.8123 69.1628C70.9214 69.4035 70.9764 69.6854 70.9764 70.0057C70.9764 70.3614 70.9106 70.6581 70.7769 70.8958C70.6433 71.1345 70.4655 71.3104 70.2435 71.4244C70.0215 71.5383 69.7749 71.5963 69.5047 71.5963C69.1972 71.5963 68.9349 71.5295 68.7187 71.3939ZM70.0696 71.0697C70.2199 70.9665 70.3329 70.8251 70.4066 70.6443C70.4812 70.4635 70.5186 70.2523 70.5186 70.0106C70.5186 69.7631 70.4832 69.5469 70.4125 69.3603C70.3407 69.1746 70.2317 69.0292 70.0863 68.9241C69.9399 68.8199 69.7582 68.7669 69.5381 68.7669C69.3131 68.7669 69.1245 68.8179 68.9742 68.9211C68.8229 69.0243 68.7099 69.1667 68.6352 69.3485C68.5606 69.5292 68.5232 69.7395 68.5232 69.9821C68.5232 70.2297 68.5586 70.4458 68.6313 70.6325C68.702 70.8172 68.8111 70.9636 68.9575 71.0677C69.1029 71.1729 69.2856 71.2259 69.5047 71.2259C69.7297 71.2259 69.9183 71.1738 70.0696 71.0697Z" fill="white"/>
<path id="Vector_20" d="M79.0635 71.5039C78.8759 71.442 78.7118 71.3556 78.5684 71.2446L78.7776 70.9292C78.9053 71.0275 79.0488 71.1021 79.2089 71.1512C79.369 71.2004 79.5203 71.2249 79.6638 71.2249C79.8927 71.2249 80.0666 71.1837 80.1845 71.1002C80.3033 71.0176 80.3623 70.8929 80.3623 70.7239C80.3623 70.6266 80.3407 70.5441 80.2984 70.4822C80.2562 70.4183 80.1854 70.3604 80.0892 70.3083C79.9929 70.2553 79.8534 70.1973 79.6726 70.1344L79.592 70.1049C79.3926 70.0352 79.2305 69.9664 79.1067 69.8976C78.982 69.8289 78.8827 69.7395 78.8061 69.6285C78.7295 69.5174 78.6921 69.377 78.6921 69.209C78.6921 69.0321 78.7403 68.8818 78.8375 68.76C78.9338 68.6382 79.0615 68.5458 79.2207 68.4869C79.3789 68.426 79.5488 68.3965 79.7296 68.3965C79.9202 68.3965 80.101 68.4201 80.2699 68.4682C80.4399 68.5154 80.6059 68.593 80.7671 68.701L80.5676 69.0144C80.4271 68.926 80.2935 68.8622 80.1629 68.8219C80.0332 68.7826 79.8858 68.7629 79.7247 68.7629C79.5567 68.7629 79.4162 68.7973 79.3052 68.8671C79.1942 68.9378 79.1382 69.0449 79.1382 69.1913C79.1382 69.2679 79.1568 69.3347 79.1932 69.3917C79.2305 69.4487 79.2934 69.5027 79.3838 69.5528C79.4742 69.6039 79.5999 69.6579 79.763 69.7149L79.8436 69.7434C80.0567 69.8161 80.2257 69.8859 80.3534 69.9507C80.4802 70.0155 80.5902 70.1099 80.6816 70.2317C80.7739 70.3535 80.8191 70.5117 80.8191 70.7042C80.8191 70.8978 80.7729 71.0609 80.6816 71.1925C80.5892 71.3251 80.4576 71.4244 80.2857 71.4931C80.1137 71.5619 79.9114 71.5953 79.6756 71.5953C79.4555 71.5973 79.2512 71.5658 79.0635 71.5039Z" fill="white"/>
</g>
<path id="Vector_21" d="M59.3305 18.0605C59.3178 18.0704 59.303 18.0782 59.2873 18.0861C59.2775 18.091 59.2647 18.0959 59.252 18.1038C59.2696 18.0959 59.2844 18.0861 59.3001 18.0763C59.3109 18.0733 59.3207 18.0674 59.3305 18.0605Z" fill="url(#paint3_linear_284_359)"/>
<path id="Vector_22" d="M31.3794 19.7017L26.2284 29.0388L24.0975 32.9017L22.8675 35.1309L22.8656 35.1338L21.6356 37.363L20.7396 38.9889L17.2608 45.2962H14.1386L15.8608 42.3145C16.4493 42.2418 16.9061 41.7388 16.9061 41.1306C16.9061 40.4714 16.3717 39.937 15.7134 39.937C15.0542 39.937 14.5208 40.4714 14.5208 41.1306C14.5208 41.2947 14.5542 41.4519 14.6141 41.5943C14.6141 41.5943 14.6141 41.5943 14.6141 41.5953L12.4773 45.2962H10.2806L13.9254 38.985V38.984C14.5139 38.9113 14.9697 38.4103 14.9697 37.8012C14.9697 37.1429 14.4353 36.6085 13.777 36.6085C13.1178 36.6085 12.5844 37.1429 12.5844 37.8012C12.5844 37.9662 12.6178 38.1234 12.6777 38.2658L8.61926 45.2962H6.80273L10.2688 38.987H10.2668L26.1223 10.1328L28.0234 13.5939L29.1197 15.5863L31.3794 19.7017Z" fill="#E3633D"/>
<path id="Vector_23" d="M55.9547 45.2948H45.4967L31.3781 19.7004L29.1185 15.585L28.0221 13.5926L26.1211 10.1315L28.2628 6.23612L29.3504 4.25356L30.436 2.27886L31.383 0.554688L55.9547 45.2948Z" fill="#E3633D"/>
<path id="Vector_24" d="M70.2899 14.4788C70.2899 22.1565 64.6822 28.4009 57.7865 28.4009H55.9513L56.0122 41.427L54.9394 39.4729L54.4118 38.5131L54.3312 38.3667L52.5668 35.1551L50.5469 31.4788L47.0072 25.035L46.9944 22.2223L46.9846 19.8645L46.9797 18.4557H57.7884C57.8415 18.4557 57.8965 18.4527 57.9505 18.4507C58.8878 18.4507 59.7209 17.9242 60.3388 17.259C60.3712 17.2237 60.4017 17.1883 60.4302 17.1529C61.0138 16.4957 61.282 15.6233 61.3517 14.7617C61.3596 14.6684 61.3615 14.575 61.3615 14.4788C61.3615 12.282 59.7582 10.4999 57.7884 10.4999H39.02L36.8586 6.56621L35.7504 4.54633L33.5566 0.554688H57.7874C61.1935 0.554688 64.2862 2.07746 66.5409 4.54633C68.8536 7.07315 70.2899 10.5932 70.2899 14.4788Z" fill="url(#paint4_linear_284_359)"/>
<path id="Vector_25" d="M59.3303 18.0605C59.3176 18.0704 59.3028 18.0782 59.2871 18.0861C59.292 18.0831 59.2969 18.0812 59.2999 18.0763C59.3107 18.0733 59.3205 18.0674 59.3303 18.0605Z" fill="url(#paint5_linear_284_359)"/>
<path id="Vector_26" d="M59.3305 18.0605C59.3178 18.0704 59.303 18.0782 59.2873 18.0861C59.2775 18.091 59.2647 18.0959 59.252 18.1038C59.2696 18.0959 59.2844 18.0861 59.3001 18.0763C59.3109 18.0733 59.3207 18.0674 59.3305 18.0605Z" fill="url(#paint6_linear_284_359)"/>
<path id="Vector_27" d="M59.3305 18.0605C59.3178 18.0704 59.303 18.0782 59.2873 18.0861C59.2775 18.091 59.2647 18.0959 59.252 18.1038C59.2696 18.0959 59.2844 18.0861 59.3001 18.0763C59.3109 18.0733 59.3207 18.0674 59.3305 18.0605Z" fill="url(#paint7_linear_284_359)"/>
<path id="Vector_28" d="M39.829 38.9941L20.7383 38.9892L26.2271 29.0391L34.3706 29.0587L39.829 38.9941Z" fill="#E3633D"/>
<path id="Vector_29" d="M48.7618 10.4979H39.019L36.8576 6.56426L35.7494 4.54437L33.5547 0.552734H43.8791L48.7618 10.4979Z" fill="url(#paint8_linear_284_359)"/>
<path id="Vector_30" d="M56.0091 41.4244L54.9362 39.4703L54.4116 38.5105L54.3301 38.3641L52.5656 35.1525L50.5457 31.4762L47.006 25.0334L46.9932 22.2207L46.9834 19.8619L46.9805 18.9531L55.9688 35.3195L56.0091 41.4244Z" fill="url(#paint9_linear_284_359)"/>
<path id="Vector_31" d="M45.1111 29.0391H30.2832V38.9941H45.1111V29.0391Z" fill="#E3633D"/>
</g>
<defs>
<linearGradient id="paint0_linear_284_359" x1="60.7594" y1="33.8358" x2="63.9892" y2="33.8358" gradientUnits="userSpaceOnUse">
<stop offset="0.00893868" stop-color="#3E5FE2"/>
<stop offset="0.0158" stop-color="#3964E4"/>
<stop offset="0.0528" stop-color="#247AEE"/>
<stop offset="0.0965" stop-color="#148BF6"/>
<stop offset="0.1505" stop-color="#0896FB"/>
<stop offset="0.2264" stop-color="#029DFE"/>
<stop offset="0.4369" stop-color="#009FFF"/>
</linearGradient>
<linearGradient id="paint1_linear_284_359" x1="66.7902" y1="37.1036" x2="76.9581" y2="37.1036" gradientUnits="userSpaceOnUse">
<stop offset="0.00893868" stop-color="#3E5FE2"/>
<stop offset="0.0158" stop-color="#3964E4"/>
<stop offset="0.0528" stop-color="#247AEE"/>
<stop offset="0.0965" stop-color="#148BF6"/>
<stop offset="0.1505" stop-color="#0896FB"/>
<stop offset="0.2264" stop-color="#029DFE"/>
<stop offset="0.4369" stop-color="#009FFF"/>
</linearGradient>
<linearGradient id="paint2_linear_284_359" x1="78.7025" y1="37.0403" x2="88.3919" y2="37.0403" gradientUnits="userSpaceOnUse">
<stop offset="0.00893868" stop-color="#3E5FE2"/>
<stop offset="0.0158" stop-color="#3964E4"/>
<stop offset="0.0528" stop-color="#247AEE"/>
<stop offset="0.0965" stop-color="#148BF6"/>
<stop offset="0.1505" stop-color="#0896FB"/>
<stop offset="0.2264" stop-color="#029DFE"/>
<stop offset="0.4369" stop-color="#009FFF"/>
</linearGradient>
<linearGradient id="paint3_linear_284_359" x1="59.2916" y1="18.0603" x2="59.2916" y2="18.0664" gradientUnits="userSpaceOnUse">
<stop offset="4.04912e-07" stop-color="#3E5FE2"/>
<stop offset="1" stop-color="#009FFF"/>
</linearGradient>
<linearGradient id="paint4_linear_284_359" x1="33.5559" y1="20.9903" x2="70.2899" y2="20.9903" gradientUnits="userSpaceOnUse">
<stop offset="0.00893868" stop-color="#3E5FE2"/>
<stop offset="0.0158" stop-color="#3964E4"/>
<stop offset="0.0528" stop-color="#247AEE"/>
<stop offset="0.0965" stop-color="#148BF6"/>
<stop offset="0.1505" stop-color="#0896FB"/>
<stop offset="0.2264" stop-color="#029DFE"/>
<stop offset="0.4369" stop-color="#009FFF"/>
</linearGradient>
<linearGradient id="paint5_linear_284_359" x1="59.3091" y1="18.0659" x2="59.3091" y2="18.086" gradientUnits="userSpaceOnUse">
<stop offset="4.04912e-07" stop-color="#3E5FE2"/>
<stop offset="1" stop-color="#009FFF"/>
</linearGradient>
<linearGradient id="paint6_linear_284_359" x1="59.2525" y1="18.0818" x2="59.3308" y2="18.0818" gradientUnits="userSpaceOnUse">
<stop offset="4.04912e-07" stop-color="#3E5FE2"/>
<stop offset="1" stop-color="#009FFF"/>
</linearGradient>
<linearGradient id="paint7_linear_284_359" x1="59.2916" y1="18.0603" x2="59.2916" y2="18.067" gradientUnits="userSpaceOnUse">
<stop offset="4.04912e-07" stop-color="#3E5FE2"/>
<stop offset="1" stop-color="#009FFF"/>
</linearGradient>
<linearGradient id="paint8_linear_284_359" x1="33.5551" y1="5.52555" x2="48.7621" y2="5.52555" gradientUnits="userSpaceOnUse">
<stop offset="4.04912e-07" stop-color="#3E5FE2"/>
<stop offset="0.221" stop-color="#2E70EA"/>
<stop offset="0.726" stop-color="#0D92F9"/>
<stop offset="1" stop-color="#009FFF"/>
</linearGradient>
<linearGradient id="paint9_linear_284_359" x1="46.9806" y1="30.1889" x2="56.0095" y2="30.1889" gradientUnits="userSpaceOnUse">
<stop offset="4.04912e-07" stop-color="#3E5FE2"/>
<stop offset="0.221" stop-color="#2E70EA"/>
<stop offset="0.726" stop-color="#0D92F9"/>
<stop offset="1" stop-color="#009FFF"/>
</linearGradient>
</defs>
</svg>
